<?xml version="1.0" encoding="utf-8"?>
<!-- Generator: Adobe Illustrator 23.0.3, SVG Export Plug-In . SVG Version: 6.00 Build 0)  -->
<svg version="1.1" xmlns="http://www.w3.org/2000/svg" xmlns:xlink="http://www.w3.org/1999/xlink" x="0px" y="0px"
	 viewBox="0 0 3710 3710" style="enable-background:new 0 0 3710 3710;" xml:space="preserve">
<style type="text/css">
	.st0{display:none;}
	.st1{display:inline;}
	.st2{fill:#FFFFFF;}
	.st3{fill:#F4F7FA;}
	.st4{fill:url(#SVGID_1_);}
	.st5{fill:#D8DEE8;}
	.st6{fill:url(#SVGID_2_);}
	.st7{opacity:0.3;fill:#97A6B7;}
	.st8{fill:url(#SVGID_3_);}
	.st9{fill:#97A6B7;}
	.st10{opacity:0.5;fill:#FFFFFF;}
	.st11{fill:url(#SVGID_4_);}
	.st12{fill:url(#SVGID_5_);}
	.st13{fill:url(#SVGID_6_);}
	.st14{fill:url(#SVGID_7_);}
	.st15{fill:url(#SVGID_8_);}
	.st16{fill:url(#SVGID_9_);}
	.st17{fill:url(#SVGID_10_);}
	.st18{fill:url(#SVGID_11_);}
	.st19{fill:url(#SVGID_12_);}
	.st20{fill:url(#SVGID_13_);}
	.st21{fill:url(#SVGID_14_);}
	.st22{opacity:0.3;fill:url(#SVGID_15_);}
	.st23{opacity:0.3;fill:url(#SVGID_16_);}
	.st24{opacity:0.4;fill:#FFFFFF;}
	.st25{opacity:0.3;fill:url(#SVGID_17_);}
	.st26{opacity:0.3;fill:url(#SVGID_18_);}
	.st27{fill:url(#SVGID_19_);}
	.st28{fill:url(#SVGID_20_);}
	.st29{fill:url(#SVGID_21_);}
	.st30{opacity:0.3;fill:url(#SVGID_22_);}
	.st31{opacity:0.3;fill:url(#SVGID_23_);}
	.st32{opacity:0.3;fill:url(#SVGID_24_);}
	.st33{opacity:0.3;fill:url(#SVGID_25_);}
	.st34{fill:url(#SVGID_26_);}
	.st35{fill:url(#SVGID_27_);}
	.st36{fill:url(#SVGID_28_);}
	.st37{opacity:0.6;fill:url(#SVGID_29_);}
	.st38{opacity:0.6;}
	.st39{fill:url(#SVGID_30_);}
	.st40{fill:url(#SVGID_31_);}
	.st41{fill:url(#SVGID_32_);}
	.st42{fill:url(#SVGID_33_);}
</style>
<g id="Background" class="st0">
	<g class="st1">
		<g>
			<rect class="st2" width="3710" height="3710"/>
		</g>
	</g>
</g>
<g id="Illustration">
	<g>
		<path class="st3" d="M719.64,1047.81c592.44-732.66,1995.04-773.61,2407.46-192.5c227.24,320.19,132.28,798.82,85.43,1034.98
			c-86.22,434.59-298.83,714.37-345.26,773.72c-112.65,144-386.27,493.79-797.96,573.74
			c-703.44,136.62-1581.17-558.97-1629.79-1343.74C411.47,1441.57,668.42,1111.15,719.64,1047.81z"/>
		<g>
			<linearGradient id="SVGID_1_" gradientUnits="userSpaceOnUse" x1="784.5189" y1="1520.7976" x2="2159.2974" y2="1520.7976">
				<stop  offset="0" style="stop-color:#444B8C"/>
				<stop  offset="0.9964" style="stop-color:#26264F"/>
			</linearGradient>
			<path class="st4" d="M2117.52,722.39L840.41,648.51c-29.41-1.44-55.89,30.66-55.89,57.61v1644.51c0,37.38,38.18,44.9,67.59,41.9
				l1265.41-129.23c23.11-2.36,41.78-23.51,41.78-47.25V767.42C2159.3,743.68,2140.64,723.52,2117.52,722.39z"/>
			<path class="st5" d="M2138.53,709.33L858.89,646.38c-29.41-1.45-53.37,19.39-53.37,46.56V2350.3c0,27.16,23.96,46.72,53.37,43.69
				l1279.63-131.71c23.11-2.38,41.78-23.7,41.78-47.62V754.71C2180.3,730.78,2161.64,710.46,2138.53,709.33z"/>
			<linearGradient id="SVGID_2_" gradientUnits="userSpaceOnUse" x1="830.0879" y1="1520.2448" x2="2161.1648" y2="1520.2448">
				<stop  offset="3.597120e-03" style="stop-color:#E38DDD"/>
				<stop  offset="1" style="stop-color:#9571F6"/>
			</linearGradient>
			<path class="st6" d="M858.89,2371.51c-15.87,1.6-28.81-9-28.81-23.64V694.04c0-14.64,12.94-25.93,28.81-25.18l1279.63,60.45
				c12.5,0.59,22.64,11.6,22.64,24.55v1462.7c0,12.95-10.14,24.5-22.64,25.76L858.89,2371.51z"/>
			<polygon class="st2" points="2056.05,2203.08 961.58,2308.53 961.58,782.73 2056.05,823.95 			"/>
			<path class="st7" d="M1618.29,831.42l-437.41,5.47l9.81-98.65c0.74-12.82,10.01-23.34,22.21-25.21l74.08-11.38
				c8.72-1.34,16.23-7.1,20.04-15.38l8.03-17.44l193.76,11.96L1618.29,831.42z"/>
			<linearGradient id="SVGID_3_" gradientUnits="userSpaceOnUse" x1="1180.8826" y1="678.7318" x2="1868.5287" y2="678.7318">
				<stop  offset="0" style="stop-color:#444B8C"/>
				<stop  offset="0.9964" style="stop-color:#26264F"/>
			</linearGradient>
			<path class="st8" d="M1851.88,767.42c-2.07-11.16-11.02-18.99-22.28-19.5l-69.89-3.13c-31.72-1.42-54.98-27.19-53.82-59.84
				l2.7-75.65c0.5-13.99-9.49-25.2-23.22-26.02l-22.96-1.37c-17.51-1.05-29.17-16.48-26.71-34.33
				c4.29-31.19-17.08-58.11-48.06-60.22c-31.22-2.13-60.36,21.72-65,53.32c-0.69,4.69-2.28,9.33-4.86,13.47
				c-7.21,11.57-19.85,17.94-32.23,17.2l-23.69-1.41c-14.35-0.86-27.99,9.22-31.63,23.39l-19.7,76.79
				c-8.52,33.21-40.65,57.21-74.77,55.68l-76.67-3.44c-12.56-0.56-24.88,6.76-30.66,18.23l-46.2,91.68
				c-3.78,7.51,0.88,15.62,9.12,15.89l664.9,22.08c7.28,0.24,13.45-7.01,12.11-14.23L1851.88,767.42z M1578.2,552.83
				c-9.16-0.57-15.51-8.53-14.18-17.78c1.33-9.25,9.84-16.27,19-15.67c9.14,0.6,15.46,8.55,14.13,17.78
				C1595.82,546.37,1587.34,553.39,1578.2,552.83z"/>
			<path class="st9" d="M1855.81,769.47c-2.08-11.16-11.02-18.99-22.28-19.5l-69.89-3.13c-31.72-1.42-54.98-27.19-53.82-59.84
				l2.7-75.65c0.5-13.99-9.49-25.2-23.22-26.02l-22.96-1.37c-17.51-1.05-29.17-16.48-26.71-34.33
				c4.29-31.19-17.08-58.11-48.06-60.23c-31.22-2.13-60.36,21.72-65,53.32c-0.69,4.69-2.28,9.33-4.86,13.47
				c-7.21,11.57-19.85,17.94-32.23,17.2l-23.69-1.41c-14.35-0.86-27.99,9.22-31.63,23.39l-19.7,76.79
				c-8.52,33.21-40.65,57.21-74.77,55.68l-76.67-3.44c-12.56-0.56-24.88,6.76-30.66,18.23l-46.2,91.68
				c-3.78,7.51,0.88,15.62,9.12,15.89l664.9,22.08c7.28,0.24,13.45-7.01,12.11-14.23L1855.81,769.47z M1582.14,554.88
				c-9.16-0.57-15.51-8.53-14.18-17.78c1.33-9.25,9.84-16.27,19-15.67c9.14,0.6,15.46,8.55,14.13,17.78
				C1599.76,548.42,1591.28,555.44,1582.14,554.88z"/>
			<g>
				<path class="st10" d="M1742.03,811.6c-59.31-36.61-104.82-10.65-141.78-51.95c-39.57-44.21-12.88-102.4-53.82-129.87
					c-26.21-17.58-49.59-2.07-80.08-6.83c-11.16-1.74-23.08-6.18-35.45-14.83l-16.43,64.04c-8.52,33.21-40.65,57.2-74.77,55.68
					l-76.67-3.44c-12.56-0.56-24.88,6.76-30.66,18.23l-46.2,91.68c-3.78,7.51,0.88,15.62,9.12,15.89l604.25,20.07
					C1784.31,846.1,1765.4,826.03,1742.03,811.6z"/>
			</g>
			<polygon class="st5" points="1949.32,1275.65 1101.67,1280.19 1101.67,1229.86 1949.32,1227.16 			"/>
			<g>
				<polygon class="st5" points="1805.98,1415.46 1088.99,1432.73 1088.99,1380.31 1805.98,1366.32 				"/>
				<polygon class="st5" points="1805.98,1501.49 1088.99,1524.49 1088.99,1472.08 1805.98,1452.35 				"/>
				<polygon class="st5" points="1805.98,1587.52 1088.99,1616.26 1088.99,1563.84 1805.98,1538.38 				"/>
				<polygon class="st5" points="1805.98,1673.55 1088.99,1708.03 1088.99,1655.61 1805.98,1624.41 				"/>
			</g>
			<g>
				<polygon class="st5" points="1949.32,1412 1855,1414.28 1855,1365.36 1949.32,1363.52 				"/>
				<polygon class="st5" points="1949.32,1496.89 1855,1499.91 1855,1451 1949.32,1448.4 				"/>
				<polygon class="st5" points="1949.32,1581.77 1855,1585.55 1855,1536.64 1949.32,1533.29 				"/>
				<polygon class="st5" points="1949.32,1666.66 1855,1671.19 1855,1622.28 1949.32,1618.17 				"/>
			</g>
			<g>
				<polygon class="st5" points="1805.98,1813.16 1088.99,1856.95 1088.99,1804.53 1805.98,1764.02 				"/>
				<polygon class="st5" points="1805.98,1899.19 1088.99,1948.72 1088.99,1896.3 1805.98,1850.05 				"/>
				<polygon class="st5" points="1805.98,1985.23 1088.99,2040.48 1088.99,1988.07 1805.98,1936.09 				"/>
				<polygon class="st5" points="1805.98,2071.26 1088.99,2132.25 1088.99,2079.84 1805.98,2022.12 				"/>
			</g>
			<g>
				<polygon class="st5" points="1949.32,1804.41 1855,1810.17 1855,1761.25 1949.32,1755.92 				"/>
				<polygon class="st5" points="1949.32,1889.29 1855,1895.81 1855,1846.89 1949.32,1840.81 				"/>
				<polygon class="st5" points="1949.32,1974.18 1855,1981.45 1855,1932.53 1949.32,1925.69 				"/>
				<polygon class="st5" points="1949.32,2059.06 1855,2067.09 1855,2018.17 1949.32,2010.58 				"/>
			</g>
			<g>
				<polygon class="st5" points="1101.67,1141.74 1101.67,1192.07 1419.57,1191.58 1419.57,1141.94 				"/>
			</g>
			<g>
				<polygon class="st5" points="1101.67,965.5 1101.67,1015.83 1419.57,1017.77 1419.57,968.13 				"/>
			</g>
			<g>
				<polygon class="st5" points="1101.67,1053.62 1101.67,1103.95 1419.57,1104.67 1419.57,1055.03 				"/>
			</g>
		</g>
		<g>
			
				<linearGradient id="SVGID_4_" gradientUnits="userSpaceOnUse" x1="6182.186" y1="2787.5068" x2="6241.2075" y2="2729.3164" gradientTransform="matrix(-1 0 0 1 6905.2178 0)">
				<stop  offset="0" style="stop-color:#FF9085"/>
				<stop  offset="1" style="stop-color:#FB6FBB"/>
			</linearGradient>
			<path class="st11" d="M610.59,2796.83h44.88l55.6-141.28C711.07,2655.54,609.06,2662.68,610.59,2796.83z"/>
			
				<linearGradient id="SVGID_5_" gradientUnits="userSpaceOnUse" x1="5128.1431" y1="3181.3269" x2="5388.1172" y2="2925.0137" gradientTransform="matrix(-1 0 0 1 6905.2178 0)">
				<stop  offset="0" style="stop-color:#FF9085"/>
				<stop  offset="1" style="stop-color:#FB6FBB"/>
			</linearGradient>
			<path class="st12" d="M1658.17,3041.17l-292.11-54.14c0,0-26.51-225.49,104.06-246.91
				C1600.68,2718.7,1670.76,2893.37,1658.17,3041.17z"/>
			<g>
				
					<linearGradient id="SVGID_6_" gradientUnits="userSpaceOnUse" x1="5166.7739" y1="2950.1658" x2="5422.8071" y2="2950.1658" gradientTransform="matrix(-1 0 0 1 6905.2178 0)">
					<stop  offset="0" style="stop-color:#444B8C"/>
					<stop  offset="0.9964" style="stop-color:#3E4177"/>
				</linearGradient>
				<path class="st13" d="M1643.78,2775.92c0.03,0,0.07,0.01,0.1,0.01c9.11,0.92,17.47,4.48,25.78,9.59
					c7.99,4.05,17.63,8.83,17.63,14.93v0.14c30.77,32,51.02,91.14,51.14,157.36c0.16,88.19-35.72,159.47-83.05,167.7
					c0,0,0.1,0.05,0.1,0.05c-3.19,0.46-42.84,14.82-167.81,0.67c-3.31-53.67-5.27-357.54-5.27-357.54
					S1582.29,2763.66,1643.78,2775.92z"/>
				<g>
					
						<linearGradient id="SVGID_7_" gradientUnits="userSpaceOnUse" x1="5568.688" y1="2636.1401" x2="5308.001" y2="3147.2046" gradientTransform="matrix(-1 0 0 1 6905.2178 0)">
						<stop  offset="0" style="stop-color:#EBEFF2"/>
						<stop  offset="0.9946" style="stop-color:#B7C0CE"/>
					</linearGradient>
					<path class="st14" d="M1394.29,2941.01c0,100.87,46.7,184.47,103.29,186.57c55.51,2.07,99.65-75.33,99.55-172.73
						c-0.1-97.31-44.33-180.49-99.74-185.99C1440.9,2763.26,1394.29,2840.24,1394.29,2941.01z"/>
					<path class="st2" d="M1438.56,2943.32c0.02,71.58,31.14,131.08,69.06,132.83c37.43,1.73,67.37-53.6,67.3-123.51
						c-0.07-69.86-30.07-129.17-67.45-132.55C1469.6,2816.67,1438.55,2871.8,1438.56,2943.32z"/>
				</g>
			</g>
			<g>
				
					<linearGradient id="SVGID_8_" gradientUnits="userSpaceOnUse" x1="6005.4668" y1="2818.6064" x2="6215.0264" y2="2818.6064" gradientTransform="matrix(-1 0 0 1 6905.2178 0)">
					<stop  offset="0" style="stop-color:#444B8C"/>
					<stop  offset="0.9964" style="stop-color:#3E4177"/>
				</linearGradient>
				<path class="st15" d="M820.98,2668.52c0.03,0,0.05,0.01,0.08,0.01c7.39,0.79,16.15,3.86,22.9,8.26
					c6.48,3.49,4.74,7.6,16.28,12.86v0.12c19.23,27.56,39.41,78.51,39.51,135.55c0.13,75.96-29.97,137.36-68.36,144.45
					c0,0-0.42,0.05-0.42,0.05c-2.59,0.4-35,12.76-136.38,0.58c-2.69-46.23-4.4-307.98-4.4-307.98S771.1,2657.96,820.98,2668.52z"/>
				<g>
					
						<linearGradient id="SVGID_9_" gradientUnits="userSpaceOnUse" x1="6340.8066" y1="2549.418" x2="6117.3481" y2="2987.4973" gradientTransform="matrix(-1 0 0 1 6905.2178 0)">
						<stop  offset="0" style="stop-color:#EBEFF2"/>
						<stop  offset="0.9946" style="stop-color:#B7C0CE"/>
					</linearGradient>
					<path class="st16" d="M618.58,2810.72c0,86.89,37.88,158.89,83.8,160.71c45.03,1.78,80.84-64.88,80.76-148.79
						c-0.08-83.82-35.96-155.47-80.91-160.21C656.39,2657.61,618.58,2723.92,618.58,2810.72z"/>
					<path class="st2" d="M654.5,2812.71c0.01,61.66,25.26,112.91,56.03,114.42c30.37,1.49,54.65-46.17,54.6-106.39
						c-0.05-60.18-24.4-111.26-54.72-114.17C679.68,2703.62,654.48,2751.1,654.5,2812.71z"/>
				</g>
			</g>
			<g>
				
					<linearGradient id="SVGID_10_" gradientUnits="userSpaceOnUse" x1="4039.7554" y1="2917.6907" x2="4351.6597" y2="2917.6907" gradientTransform="matrix(-1 0 0 1 6905.2178 0)">
					<stop  offset="0" style="stop-color:#444B8C"/>
					<stop  offset="0.9964" style="stop-color:#3E4177"/>
				</linearGradient>
				<path class="st17" d="M2748.28,2704.97c0.04,0,0.08,0,0.12,0c11.32,0,19.95,5.71,30.32,10.77c10.01,3.86,16.45,11.54,20.3,18.12
					v0.16c42.32,34.33,66.44,103.08,66.44,182.26c0,105.36-44.9,192.2-104.24,204.12c0,0,0.57,0.06,0.57,0.06
					c-3.97,0.69-52.66,19.22-202.36,8.16c-3.85-61.12-5.87-410.8-5.87-410.8S2672.83,2697.28,2748.28,2704.97z"/>
				<g>
					
						<linearGradient id="SVGID_11_" gradientUnits="userSpaceOnUse" x1="4514.6357" y1="2569.8389" x2="4218.6377" y2="3150.1292" gradientTransform="matrix(-1 0 0 1 6905.2178 0)">
						<stop  offset="0" style="stop-color:#444B8C"/>
						<stop  offset="0.9964" style="stop-color:#3E4177"/>
					</linearGradient>
					<ellipse class="st18" cx="2571.27" cy="2924.06" rx="119.37" ry="205.53"/>
					
						<linearGradient id="SVGID_12_" gradientUnits="userSpaceOnUse" x1="4241.5322" y1="2923.2625" x2="4402.6206" y2="2923.2625" gradientTransform="matrix(-1 0 0 1 6905.2178 0)">
						<stop  offset="0" style="stop-color:#444B8C"/>
						<stop  offset="0.9964" style="stop-color:#3E4177"/>
					</linearGradient>
					<ellipse class="st19" cx="2583.14" cy="2923.26" rx="80.54" ry="146.96"/>
				</g>
			</g>
			
				<linearGradient id="SVGID_13_" gradientUnits="userSpaceOnUse" x1="4413.0469" y1="3590.6687" x2="2169.8896" y2="6418.5366" gradientTransform="matrix(-1 0 0 1 6905.2178 0)">
				<stop  offset="0" style="stop-color:#FF9085"/>
				<stop  offset="1" style="stop-color:#FB6FBB"/>
			</linearGradient>
			<path class="st20" d="M571.95,2717.69c-4.17,18.91,1.17,38.66,14.3,52.89l24.3,26.32c6.66-77.65,46.83-137.37,95.44-137.37
				c53.2,0,96.42,71.7,96.42,160.12c0,20.97-2.41,40.95-6.87,59.3l10.63,4.39l574.15,106.34c-1.56-11.83-4.43-24.09-4.43-36.56
				c0-11.26-0.17-22.25-0.17-33.02c0-0.07,0-0.07,0-0.14c19.23-91.53,66.06-161.25,130.39-161.25
				c71.91,0,131.26,87.07,131.26,194.41c0,29.33-3.87,57.1-11.66,82.04l85.84,15.87c0.07,0.14,0.35,1.88,0.55,2.02
				c2.69,2.91,23.44,21.22,124.9,21.22h1119.74c50.66,0,88.48-44.21,88.48-94.86v-4.18c0-19.41-9.35-37.12-26.71-45.84
				c0,0,31-88.84,6.41-195.11c-9.85-42.44-27.93-87.64-60.59-131.07c-18.98-25.22-42.44-49.81-71.92-72.9
				c0,0-127.42-105.7-361.22-133.19c0,0-193.79-140.87-371.12-234.25c-87.43-46.05-183.23-69.53-282.07-69.53h-648.18
				c-112.5,0-222.89,31.34-318.6,90.57L742.4,2288.2c0,0-40.32,24.02-81.41,81.55c-46.76,65.39-94.51,174.14-85.09,340
				L571.95,2717.69L571.95,2717.69z"/>
			
				<linearGradient id="SVGID_14_" gradientUnits="userSpaceOnUse" x1="4584.4277" y1="2684.5901" x2="4441.5796" y2="3483.3765" gradientTransform="matrix(-1 0 0 1 6905.2178 0)">
				<stop  offset="0" style="stop-color:#EBEFF2"/>
				<stop  offset="0.9946" style="stop-color:#B7C0CE"/>
			</linearGradient>
			<path class="st21" d="M1711.81,3051.03c0.07,0.14,0.22,1.88,0.42,2.02c7.8,4.89,17.64,28.91,277.37,21.22h967.14
				c50.66,0,88.48-44.21,88.48-94.86v-4.18c0-1.13,1.56-2.2,1.49-3.33c-1.13-18.07-11.02-34.29-27.38-42.51l-1126.07,10.63
				c0,0-106.21-19.34-142.63-0.28c-5.1,2.69-8.75,6.09-10.59,10.41C1724.74,2985.42,1704.72,3034.52,1711.81,3051.03z"/>
			<g>
				<path class="st2" d="M2765.1,2736.54v14.67c0,11.41,4.68,22.25,12.9,30.18c8.22,7.86,19.27,12.04,30.68,11.55l120.44-5.1
					c28.91-1.2,56.32-13.25,76.8-33.72l19.84-19.84c-9.85-42.44-28.34-87.64-61-131.07c-0.42,0.07-0.85,0.07-1.27,0.14l-57.81,45.63
					c-30.61,24.16-66.88,40.1-105.42,46.26C2779.97,2698.49,2765.1,2715.99,2765.1,2736.54z"/>
			</g>
			<g>
				
					<linearGradient id="SVGID_15_" gradientUnits="userSpaceOnUse" x1="4165.6753" y1="2719.8486" x2="4679.9365" y2="2719.8486" gradientTransform="matrix(-1 0 0 1 6905.2178 0)">
					<stop  offset="0" style="stop-color:#FF9085"/>
					<stop  offset="1" style="stop-color:#FB6FBB"/>
				</linearGradient>
				<path class="st22" d="M2230.51,2719.73c7.92,9.52,21.14,17.28,29.33,17.29c150.45-0.02,300.75-0.04,450.89-0.05
					c8.18-0.01,19.74-7.78,25.69-17.27l0,0c5.9-9.44,3.19-17.03-6.03-17.03c-165.59,0-331.38,0-497.35,0
					C2223.87,2702.7,2222.57,2710.28,2230.51,2719.73L2230.51,2719.73z"/>
				
					<linearGradient id="SVGID_16_" gradientUnits="userSpaceOnUse" x1="4202.8633" y1="2781.3999" x2="4630.3628" y2="2781.3999" gradientTransform="matrix(-1 0 0 1 6905.2178 0)">
					<stop  offset="0" style="stop-color:#FF9085"/>
					<stop  offset="1" style="stop-color:#FB6FBB"/>
				</linearGradient>
				<path class="st23" d="M2281.32,2781.32c8.37,9.97,20.51,18.16,27.22,18.15c122.25-0.04,244.41-0.08,366.46-0.12
					c6.67,0,17.17-8.16,23.42-18.14l0,0c6.24-9.91,4.91-17.89-2.77-17.88c-138.27,0.03-276.68,0.06-415.22,0.09
					C2272.7,2763.42,2273.03,2771.4,2281.32,2781.32C2281.31,2781.32,2281.31,2781.32,2281.32,2781.32z"/>
			</g>
			<path class="st2" d="M2099.54,2796.04c27.44-0.71,49.37-20.61,49.37-44.91v-14.82c0-23.11-19.89-42.45-45.87-44.72l-48.97-4.27
				l-291.45-76.75l6.38,36.74c9.66,55.51,52.07,102.23,111.22,122.52l43.28,14.85c28.48,9.77,58.93,14.4,89.47,13.61
				L2099.54,2796.04z"/>
			<path class="st24" d="M1750.84,2940.9l121.58,33.34h1175.93c-1.13-19.23-11.84-35.47-28.2-43.69l-1126.47,10.63
				C1893.67,2941.19,1787.26,2921.85,1750.84,2940.9z"/>
			<g>
				<linearGradient id="SVGID_17_" gradientUnits="userSpaceOnUse" x1="1314.4243" y1="2774.7637" x2="962.2292" y2="2614.1135">
					<stop  offset="0" style="stop-color:#FF9085"/>
					<stop  offset="1" style="stop-color:#FB6FBB"/>
				</linearGradient>
				<path class="st25" d="M985.05,2858.84c0.08,0,0.14,0,0.22,0c3.91-7.69,6.98-5.31,6.87-9.22c-0.08-2.37-6.99-239.05-0.02-334.99
					c6.05-83.11,19.97-98.19,21.2-99.32c3.06-1.71,4.45-5.71,3.11-9.06c-1.45-3.63-5.59-5.51-9.21-4.07
					c-5.12,2.05-22.36,16.02-29.23,110.5c-7.03,96.66-0.09,335-0.02,337.38C978.09,2853.91,981.24,2858.84,985.05,2858.84z"/>
			</g>
			
				<linearGradient id="SVGID_18_" gradientUnits="userSpaceOnUse" x1="5643.5732" y1="3110.1526" x2="6318.353" y2="2444.8757" gradientTransform="matrix(-1 0 0 1 6905.2178 0)">
				<stop  offset="0" style="stop-color:#FF9085"/>
				<stop  offset="1" style="stop-color:#FB6FBB"/>
			</linearGradient>
			<path class="st26" d="M571.93,2717.69l3.94-7.94c-9.42-165.86,38.29-274.6,85.05-340c29.47,1.7,68.93,16.37,65.96,83.24
				c-4.67,105.63,16.43,160.19,96.71,208.51c38.11,22.88,79.91,42.58,113.7,71.84c30.18,26.21,44.27,66.45,75.01,91.11
				c52,41.66,122.56,23.17,183.14,20.4c55.19-2.55,180.27-5.17,180.27,75.1c0,0.07,0,0.07,0,0.14c0,10.77,0.17,21.75,0.17,33.02
				c0,12.47,2.99,24.72,4.55,36.56l-574.2-106.34l-10.66-4.39c4.46-18.35,6.85-38.33,6.85-59.3c0-88.42-43.22-160.12-96.43-160.12
				c-48.6,0-88.78,59.72-95.44,137.37l-24.31-26.32C573.12,2756.35,567.77,2736.6,571.93,2717.69z"/>
			<g>
				<g>
					
						<linearGradient id="SVGID_19_" gradientUnits="userSpaceOnUse" x1="4423.5112" y1="2272.207" x2="5557.0703" y2="2272.207" gradientTransform="matrix(-1 0 0 1 6905.2178 0)">
						<stop  offset="0" style="stop-color:#444B8C"/>
						<stop  offset="0.9964" style="stop-color:#3E4177"/>
					</linearGradient>
					<path class="st27" d="M1348.15,2143.34c0,0,75.59,193.44,94.44,221.78c1.77,2.62,4.04,6.53,6.73,8.8
						c26.14,21.82,90.12,27.15,90.12,27.15h942.27c-210.2-161.57-389.66-257.74-389.66-257.74H1348.15z"/>
					<g>
						
							<linearGradient id="SVGID_20_" gradientUnits="userSpaceOnUse" x1="5760.895" y1="2262.6367" x2="6136.2485" y2="2262.6367" gradientTransform="matrix(-1 0 0 1 6905.2178 0)">
							<stop  offset="0" style="stop-color:#444B8C"/>
							<stop  offset="0.9964" style="stop-color:#3E4177"/>
						</linearGradient>
						<path class="st28" d="M768.97,2305.92c0,0,100.54,41.09,235.57,79.77c4.39-20.83,11.48-46.97,22.89-75.74
							c20.97-53.21,56.53-115.48,116.9-170.39c-46.69,3.4-101.39,12.47-159.05,32.59C914.49,2196.82,839.32,2238.12,768.97,2305.92z
							"/>
						
							<linearGradient id="SVGID_21_" gradientUnits="userSpaceOnUse" x1="5493.3071" y1="2295.4661" x2="5866.1079" y2="2295.4661" gradientTransform="matrix(-1 0 0 1 6905.2178 0)">
							<stop  offset="0" style="stop-color:#444B8C"/>
							<stop  offset="0.9964" style="stop-color:#3E4177"/>
						</linearGradient>
						<path class="st29" d="M1039.11,2395.33c67.3,18.21,141.27,35.07,214.67,45.84c41.8,6.09,83.39,10.2,123.42,11.41
							c11.69,0.35,23.31,0.5,34.72,0.35c0,0,0-0.07-0.07-0.14c-1.77-7.51-73.4-301.1-139.85-309.82
							c-15.3-1.98-39.46-4.54-69.93-5.03c-71.77,53.06-113.29,119.02-137.09,175.42
							C1051.58,2345.03,1043.72,2373.65,1039.11,2395.33z"/>
					</g>
				</g>
				
					<linearGradient id="SVGID_22_" gradientUnits="userSpaceOnUse" x1="4671.1377" y1="2652.2388" x2="5210.6396" y2="2120.3347" gradientTransform="matrix(-1 0 0 1 6905.2178 0)">
					<stop  offset="0" style="stop-color:#444B8C"/>
					<stop  offset="0.9964" style="stop-color:#3E4177"/>
				</linearGradient>
				<path class="st30" d="M1449.32,2373.83c26.14,21.82,90.12,27.24,90.12,27.24h942.27c-210.2-161.57-389.66-257.74-389.66-257.74
					h-13.32c-20.83,7.69-41.24,26.23-59.3,51.95C1946.53,2299.22,1543.76,2220.45,1449.32,2373.83z"/>
				
					<linearGradient id="SVGID_23_" gradientUnits="userSpaceOnUse" x1="5501.7568" y1="2461.5029" x2="5519.5396" y2="2443.9709" gradientTransform="matrix(-1 0 0 1 6905.2178 0)">
					<stop  offset="0" style="stop-color:#444B8C"/>
					<stop  offset="0.9964" style="stop-color:#3E4177"/>
				</linearGradient>
				<path class="st31" d="M1377.19,2452.58c11.69,0.35,23.31,0.5,34.72,0.35c0,0,0-0.07-0.07-0.14
					C1402.42,2452.72,1390.73,2452.65,1377.19,2452.58z"/>
				
					<linearGradient id="SVGID_24_" gradientUnits="userSpaceOnUse" x1="5687.1865" y1="2477.4277" x2="5846.8252" y2="2320.0376" gradientTransform="matrix(-1 0 0 1 6905.2178 0)">
					<stop  offset="0" style="stop-color:#444B8C"/>
					<stop  offset="0.9964" style="stop-color:#3E4177"/>
				</linearGradient>
				<path class="st32" d="M1064.97,2313.36c-13.39,31.67-21.25,60.29-25.86,81.97c67.3,18.21,141.27,35.07,214.67,45.84
					c-10.34-10.27-19.91-23.24-28.26-39.46C1189.02,2331.22,1124.63,2319.1,1064.97,2313.36z"/>
				
					<linearGradient id="SVGID_25_" gradientUnits="userSpaceOnUse" x1="5890.1665" y1="2375.0344" x2="6049.5039" y2="2217.9407" gradientTransform="matrix(-1 0 0 1 6905.2178 0)">
					<stop  offset="0" style="stop-color:#444B8C"/>
					<stop  offset="0.9964" style="stop-color:#3E4177"/>
				</linearGradient>
				<path class="st33" d="M768.97,2305.92c0,0,100.54,41.09,235.57,79.77c4.39-20.83,11.48-46.97,22.89-75.74
					c-35.99-3.61-67.1-9.21-84.88-30.61c-31.18-37.69,7.51-79.92,42.72-107.19C914.49,2196.82,839.32,2238.12,768.97,2305.92z"/>
			</g>
			<g>
				
					<linearGradient id="SVGID_26_" gradientUnits="userSpaceOnUse" x1="5563.9443" y1="2462.748" x2="5786.8457" y2="2242.9861" gradientTransform="matrix(-1 0 0 1 6905.2178 0)">
					<stop  offset="0" style="stop-color:#FF9085"/>
					<stop  offset="1" style="stop-color:#FB6FBB"/>
				</linearGradient>
				<path class="st34" d="M1414.5,2466.73c0,0-29.83-117.73-72.21-122.44c-42.38-4.71-163.25-39.24-174.24,18.84
					c-10.99,58.08,10.99,87.06,72.21,90.62c61.22,3.56,102.03,0,102.03,0l28.26,30.25C1370.55,2484,1416.07,2515.39,1414.5,2466.73z
					"/>
				<path class="st2" d="M1428.62,2466.73c0,0-29.82-117.73-72.21-122.44c-42.38-4.71-163.25-39.24-174.24,18.84
					c-10.99,58.08,10.99,87.06,72.21,90.62c61.22,3.56,102.03,0,102.03,0l28.25,30.25C1384.67,2484,1430.19,2515.39,1428.62,2466.73
					z"/>
			</g>
		</g>
		<g>
			<path class="st9" d="M2202.24,1317.02c-120.69,85.07-285.74,52.64-367.92-72.29c-82.18-124.93-50.85-295.78,69.84-380.84
				c120.69-85.07,285.74-52.64,367.92,72.29C2354.26,1061.11,2322.93,1231.96,2202.24,1317.02z M1921.87,890.81
				c-106.35,74.96-133.96,225.51-61.54,335.59c72.42,110.09,217.85,138.67,324.21,63.7c106.35-74.96,133.96-225.51,61.54-335.59
				C2173.66,844.42,2028.22,815.85,1921.87,890.81z"/>
			<g>
				
					<linearGradient id="SVGID_27_" gradientUnits="userSpaceOnUse" x1="6374.4883" y1="1628.9785" x2="6070.4971" y2="1381.5437" gradientTransform="matrix(0.1884 -0.9821 0.9821 0.1884 149.6437 7016.0762)">
					<stop  offset="0" style="stop-color:#FF9085"/>
					<stop  offset="1" style="stop-color:#FB6FBB"/>
				</linearGradient>
				<path class="st35" d="M2169.19,1206.63c-41.18,222.28,202.64,457.5,462.67,509.13c260.03,51.62,437.8-99.9,478.99-322.18
					c41.18-222.28-69.81-431.13-329.84-482.76C2520.97,859.2,2210.37,984.35,2169.19,1206.63z M2384.43,1146.66l-36.71,198.11
					c-8.26,44.6-67.76,49.58-83.18,7.06c-15.89-43.8-20.37-87.38-12.69-128.79s27.41-80.18,57.83-114.79
					C2339.19,1074.65,2392.69,1102.06,2384.43,1146.66z"/>
				
					<linearGradient id="SVGID_28_" gradientUnits="userSpaceOnUse" x1="5686.5513" y1="1368.8871" x2="6478.0796" y2="1368.8871" gradientTransform="matrix(0.1884 -0.9821 0.9821 0.1884 149.6437 7016.0762)">
					<stop  offset="0" style="stop-color:#FF9085"/>
					<stop  offset="1" style="stop-color:#FB6FBB"/>
				</linearGradient>
				<path class="st36" d="M3097.97,1391.02c-20.07,108.34-74.07,198.98-152.04,255.22c-83.96,60.56-191.71,79.99-311.6,56.18
					c-125.41-24.9-248.39-92.97-337.41-186.75c-92.61-97.57-133.4-206.42-114.86-306.49s95.34-185.58,216.25-240.76
					c116.22-53.04,254.8-69.18,380.22-44.28c119.89,23.8,213.05,83.12,269.41,171.53
					C3100.28,1177.79,3118.04,1282.68,3097.97,1391.02z M2238.97,1220.48c-8.09,43.68-3.62,89.48,13.3,136.12
					c9.17,25.29,31.87,40.16,57.82,37.88c25.8-2.27,45.63-20.78,50.51-47.15l36.71-198.11c4.89-26.37-6.92-51.16-30.08-63.15
					c-23.29-12.06-49.69-6.94-67.25,13.05C2267.59,1135.97,2247.06,1176.8,2238.97,1220.48z"/>
				
					<linearGradient id="SVGID_29_" gradientUnits="userSpaceOnUse" x1="5799.4834" y1="1456.265" x2="6364.8926" y2="1456.265" gradientTransform="matrix(0.1884 -0.9821 0.9821 0.1884 149.6437 7016.0762)">
					<stop  offset="0" style="stop-color:#FF9085"/>
					<stop  offset="1" style="stop-color:#FB6FBB"/>
				</linearGradient>
				<ellipse class="st37" cx="2725.73" cy="1317.12" rx="273.44" ry="283.04"/>
			</g>
			<g>
				<path class="st9" d="M2577.95,1688.24l-132.19,93.18l338.81,515.06c7.04,10.7,16.17,19.84,27.12,27.15l25.83,17.25
					c16.82,11.24,44.3,7.76,67.41-8.52l0,0c23.11-16.29,36.3-41.47,32.36-61.8l-6.04-31.2c-2.56-13.23-7.43-25.37-14.47-36.07
					L2577.95,1688.24z"/>
				<g class="st38">
					<path class="st9" d="M2638.27,1924.88c18.15,44.53,81.13,25.95,107.79,81.89c17.87,37.49-3.95,59.37,21.63,90.75
						c23.96,29.39,48.86,17.29,66.41,47.91c16.32,28.49-0.04,48.04,17.72,79.98c12.87,23.15,30.77,29.6,45.44,40.14
						c11.65,8.37,23.4,20.89,32.26,40.42c6.9-11.77,9.9-24.32,7.75-35.43l-6.05-31.2c-2.56-13.23-7.43-25.37-14.47-36.07
						l-253.96-386.06C2630.72,1873.44,2630.36,1905.48,2638.27,1924.88z"/>
				</g>
				<path class="st9" d="M2693.93,1901c4.21,6.41,1.08,16.21-7,21.91c-8.08,5.69-18.04,5.12-22.26-1.29
					c-4.21-6.41-1.08-16.21,7-21.91C2679.75,1894.02,2689.72,1894.6,2693.93,1901z"/>
				<path class="st9" d="M2798.5,2059.96c4.21,6.41,1.08,16.21-7,21.91c-8.08,5.69-18.04,5.12-22.26-1.29s-1.08-16.21,7-21.91
					C2784.32,2052.98,2794.28,2053.56,2798.5,2059.96z"/>
			</g>
			<path class="st9" d="M2274.36,1167.14c-15.6,48.4-46.03,92.09-89.83,122.96c-16.84,11.87-34.65,21.13-53.01,27.9
				c2.65,10.49,5.71,20.91,9.25,31.15c21.29-7.72,41.96-18.38,61.47-32.13c51.27-36.14,86.41-87.77,103.57-144.78
				C2295.35,1170.42,2284.86,1168.71,2274.36,1167.14z"/>
			
				<linearGradient id="SVGID_30_" gradientUnits="userSpaceOnUse" x1="3118.9382" y1="1828.77" x2="3474.2627" y2="1459.884" gradientTransform="matrix(0.8266 -0.5628 0.5628 0.8266 -1327.5828 2490.5439)">
				<stop  offset="0" style="stop-color:#FCB148"/>
				<stop  offset="0.0521" style="stop-color:#FDBA46"/>
				<stop  offset="0.1424" style="stop-color:#FFC244"/>
				<stop  offset="0.3183" style="stop-color:#FFC444"/>
				<stop  offset="0.4849" style="stop-color:#FDB946"/>
				<stop  offset="0.7754" style="stop-color:#F99C4D"/>
				<stop  offset="0.8658" style="stop-color:#F8924F"/>
				<stop  offset="1" style="stop-color:#F8924F"/>
			</linearGradient>
			<path class="st39" d="M2150.82,1186L2150.82,1186c-145.23,102.36-182.79,307.21-83.9,457.54l190.53,289.64
				c22.16,33.68,66.5,42.39,99.04,19.46L2764.56,1665c32.54-22.94,40.96-68.83,18.8-102.52l-190.53-289.64
				C2493.94,1122.52,2296.05,1083.64,2150.82,1186z M2340.46,1231.29l-218.41,153.94c-6.36,4.48-15.17,1.7-17.89-5.74
				c-9.98-27.3-1.05-59.11,23.28-76.26l137.33-96.8c24.33-17.15,56.2-14.1,77.08,5.52
				C2347.55,1217.31,2346.81,1226.82,2340.46,1231.29z"/>
			
				<linearGradient id="SVGID_31_" gradientUnits="userSpaceOnUse" x1="3858.4219" y1="890.952" x2="3328.1792" y2="1830.6884" gradientTransform="matrix(0.8266 -0.5628 0.5628 0.8266 -1327.5828 2490.5439)">
				<stop  offset="0" style="stop-color:#FCB148"/>
				<stop  offset="0.0521" style="stop-color:#FDBA46"/>
				<stop  offset="0.1424" style="stop-color:#FFC244"/>
				<stop  offset="0.3183" style="stop-color:#FFC444"/>
				<stop  offset="0.4849" style="stop-color:#FDB946"/>
				<stop  offset="0.7754" style="stop-color:#F99C4D"/>
				<stop  offset="0.8658" style="stop-color:#F8924F"/>
				<stop  offset="1" style="stop-color:#F8924F"/>
			</linearGradient>
			<path class="st40" d="M2158.2,1197.22c-139.02,97.99-175.11,294.78-80.45,438.68l190.53,289.64
				c18.05,27.44,54.31,34.57,80.82,15.88l408.07-287.63c26.51-18.69,33.4-56.22,15.34-83.66l-190.53-289.64
				C2487.33,1136.58,2297.22,1099.23,2158.2,1197.22z M2358.91,1234.71l-240.55,169.55c-5.98,4.22-14.14,2.62-18.21-3.58l0,0
				c-23.48-35.7-14.56-84.34,19.92-108.65l137.33-96.8c34.49-24.31,81.48-15.07,104.97,20.63
				C2366.44,1222.05,2364.89,1230.49,2358.91,1234.71z"/>
			
				<linearGradient id="SVGID_32_" gradientUnits="userSpaceOnUse" x1="3676.7195" y1="2047.9976" x2="3640.2002" y2="1719.3235" gradientTransform="matrix(0.8266 -0.5628 0.5628 0.8266 -1327.5828 2490.5439)">
				<stop  offset="0" style="stop-color:#FCB148"/>
				<stop  offset="0.0521" style="stop-color:#FDBA46"/>
				<stop  offset="0.1424" style="stop-color:#FFC244"/>
				<stop  offset="0.3183" style="stop-color:#FFC444"/>
				<stop  offset="0.4849" style="stop-color:#FDB946"/>
				<stop  offset="0.7754" style="stop-color:#F99C4D"/>
				<stop  offset="0.8658" style="stop-color:#F8924F"/>
				<stop  offset="1" style="stop-color:#F8924F"/>
			</linearGradient>
			<path class="st41" d="M2540.75,1448l-297.31,209.56c-13.75,9.69-17.31,29.09-7.94,43.32l22.41,34.06
				c29.61,45.01,88.87,56.66,132.35,26.01l189.62-133.66c43.49-30.65,54.74-91.99,25.13-137l-22.41-34.06
				C2573.23,1441.99,2554.5,1438.3,2540.75,1448z"/>
			
				<linearGradient id="SVGID_33_" gradientUnits="userSpaceOnUse" x1="3694.8931" y1="2039.4689" x2="3658.3738" y2="1710.7948" gradientTransform="matrix(0.8266 -0.5628 0.5628 0.8266 -1327.5828 2490.5439)">
				<stop  offset="0" style="stop-color:#FCB148"/>
				<stop  offset="0.0521" style="stop-color:#FDBA46"/>
				<stop  offset="0.1424" style="stop-color:#FFC244"/>
				<stop  offset="0.3183" style="stop-color:#FFC444"/>
				<stop  offset="0.4849" style="stop-color:#FDB946"/>
				<stop  offset="0.7754" style="stop-color:#F99C4D"/>
				<stop  offset="0.8658" style="stop-color:#F8924F"/>
				<stop  offset="1" style="stop-color:#F8924F"/>
			</linearGradient>
			<path class="st42" d="M2516.7,1411.44L2219.39,1621c-13.75,9.69-32.49,6.01-41.85-8.22l-22.41-34.06
				c-29.61-45.01-18.36-106.35,25.12-137l189.62-133.66c43.49-30.65,102.74-19.01,132.35,26.01l22.41,34.06
				C2534.01,1382.36,2530.45,1401.75,2516.7,1411.44z"/>
			<path class="st9" d="M2184.53,1290.11c-62.42,44-138.3,52.31-204.99,29.43c-2.36,10.61-4.79,21.21-7.26,31.8
				c75.03,24.84,159.95,15.04,229.96-34.3c6.36-4.48,12.46-9.22,18.32-14.16c-6.22-8.75-12.57-17.41-18.89-26.08
				C2196.2,1281.44,2190.5,1285.9,2184.53,1290.11z"/>
		</g>
	</g>
</g>
</svg>
