<?xml version="1.0" encoding="utf-8"?>
<!-- Generator: Adobe Illustrator 23.0.3, SVG Export Plug-In . SVG Version: 6.00 Build 0)  -->
<svg version="1.1" xmlns="http://www.w3.org/2000/svg" xmlns:xlink="http://www.w3.org/1999/xlink" x="0px" y="0px"
	 viewBox="0 0 595.67 500" style="enable-background:new 0 0 595.67 500;" xml:space="preserve">
<style type="text/css">
	.st0{display:none;}
	.st1{fill:#589160;}
	.st2{fill:#D5E5F0;}
	.st3{fill:#C3D7E6;}
	.st4{fill:#A574CC;}
	.st5{fill:none;stroke:#A574CC;stroke-miterlimit:10;stroke-dasharray:3.9797;}
	.st6{fill:#F2F5F7;}
	.st7{fill:#37425C;}
	.st8{fill:#AEC9E8;}
	.st9{fill:#87A5C9;}
	.st10{fill:#BDD6F3;}
	.st11{fill:#516085;}
	.st12{fill:#F7BA50;}
	.st13{fill:none;stroke:#87A5C9;stroke-miterlimit:10;}
	.st14{fill:#C7E1FF;}
	.st15{fill:#FFD269;}
	.st16{fill:#EFA97C;}
	.st17{fill:#CF7E50;}
	.st18{fill:#593119;}
	.st19{fill:#4A7A51;}
	.st20{fill:none;stroke:#0A0604;stroke-miterlimit:10;}
	.st21{fill:#29160B;}
	.st22{fill:#F0ECE7;}
	.st23{clip-path:url(#SVGID_2_);fill:#A3582C;}
	.st24{clip-path:url(#SVGID_2_);fill:#593119;}
	.st25{fill:#0A0604;}
	.st26{clip-path:url(#SVGID_4_);fill:#A3582C;}
	.st27{clip-path:url(#SVGID_4_);fill:#593119;}
	.st28{fill:#424B87;}
	.st29{fill:#FFFFFF;}
	.st30{clip-path:url(#SVGID_6_);}
	.st31{fill:none;stroke:#516085;stroke-miterlimit:10;}
	.st32{fill:#283042;}
	.st33{fill:#B5B3AE;}
	.st34{fill:#FDF9F3;}
	.st35{fill:#25294D;}
	.st36{display:inline;}
	.st37{fill:#4955A6;}
	.st38{font-family:'Montserrat-Light';}
	.st39{font-size:34.7818px;}
	.st40{font-family:'Montserrat-ExtraBold';}
	.st41{font-size:36.3588px;}
	.st42{display:inline;fill:none;}
	.st43{fill:#91AFC7;}
	.st44{font-family:'Lexend-Light';}
	.st45{font-size:9px;}
	.st46{font-family:'Lexend-Regular';}
	.st47{font-size:8.6215px;}
	.st48{fill:none;stroke:#4955A6;stroke-width:0.5;stroke-miterlimit:10;}
</style>
<g id="BACKGROUND" class="st0">
</g>
<g id="OBJECTS">
	<path class="st1" d="M154.61,324.65c0,0-11.62-27.27-33.4-13.92c-21.78,13.35,13.82,30.56,9.8,13.92
		c-4.01-16.64-39.57-27.27-35.58-13.92c3.99,13.35,17.43,24.3,10.53,14.29c-6.9-10.02-27.96-3.05-19.97,2.54
		c7.99,5.59,22.51,12.03,15.97,5c-6.54-7.03-43.2,3.69-39.57,5.41c3.63,1.72,98.65,1.15,98.65,1.15s17.85,2.05,19.3-7.59
		C181.79,321.88,154.61,324.65,154.61,324.65z"/>
	<g>
		<g>
			<rect x="383.14" y="175.92" class="st2" width="22.6" height="106.76"/>
			<rect x="403.11" y="175.92" class="st3" width="4.09" height="106.76"/>
			<rect x="405.74" y="218.46" class="st2" width="22.6" height="64.22"/>
			<rect x="425.71" y="218.46" class="st3" width="4.09" height="64.22"/>
			<path class="st2" d="M400.65,181.39h-13.91v-6.88c0-3.84,3.11-6.96,6.96-6.96l0,0c3.84,0,6.96,3.11,6.96,6.96V181.39z"/>
			<polygon class="st2" points="395.6,171.1 391.79,171.1 393.65,142.95 			"/>
		</g>
		<g>
			<rect x="428.34" y="193.28" class="st2" width="18.93" height="89.39"/>
			<rect x="445.07" y="193.28" class="st3" width="3.42" height="89.39"/>
		</g>
		<g>
			<rect x="448.49" y="187.03" class="st2" width="18.93" height="95.65"/>
			<rect x="465.22" y="187.03" class="st3" width="3.42" height="95.65"/>
		</g>
		<rect x="468.57" y="210.29" class="st2" width="20.68" height="72.39"/>
		<rect x="486.85" y="210.29" class="st3" width="3.74" height="72.39"/>
	</g>
	<g>
		<path class="st4" d="M214.1,133.98c1.34-1.92,2.25-4.05,2.33-6.57c0.18-5.72-3.7-11.42-9.33-12.88c-1.06-0.27-2.15-0.39-3.24-0.36
			c-5.57,0.17-10.19,3.49-11.94,8.88c-3.18,9.81,6.81,15.1,11.94,21.59C206.76,141,211.34,137.93,214.1,133.98z M203.86,134.79
			c-4.49,0-8.14-3.64-8.14-8.14c0-4.49,3.64-8.14,8.14-8.14s8.14,3.64,8.14,8.14C212,131.15,208.35,134.79,203.86,134.79z"/>
		<path class="st4" d="M365.55,192.51c1.34-1.92,2.25-4.05,2.33-6.57c0.18-5.72-3.7-11.42-9.33-12.88
			c-1.06-0.27-2.15-0.39-3.24-0.36c-5.57,0.17-10.19,3.49-11.94,8.88c-3.18,9.81,6.81,15.1,11.94,21.59
			C358.21,199.53,362.79,196.47,365.55,192.51z M355.31,193.32c-4.49,0-8.14-3.64-8.14-8.14s3.64-8.14,8.14-8.14
			c4.49,0,8.14,3.64,8.14,8.14S359.8,193.32,355.31,193.32z"/>
		<path class="st5" d="M224.11,133.44c0,0,23.19-1.39,49.11,27.27c25.92,28.66,61.26,28.96,61.26,28.96"/>
	</g>
	<g>
		
			<ellipse transform="matrix(0.0199 -0.9998 0.9998 0.0199 -47.2871 666.2543)" class="st6" cx="316.19" cy="357.25" rx="10.02" ry="199.17"/>
		<g>
			<path class="st7" d="M135.77,327.31l88.82,7.25c0,0,10.93-48.62-45.79-47.1C122.08,288.97,135.77,327.31,135.77,327.31z"/>
			<path class="st7" d="M396.05,340.88l89.22,1.22c0,0,6.12-58.36-50.25-51.88S396.05,340.88,396.05,340.88z"/>
			<g>
				<path class="st8" d="M507.3,290.08c-21.37-24.98-90.24-34.97-90.24-34.97s-67.44-37.47-113.52-46.79
					c-46.07-9.32-82.09-7.97-123.14,2.01c-11.44,2.78-28.68,8.97-28.68,8.97l-28.98,29.77c-0.99,1.01-1.52,2.38-1.47,3.79
					c0.14,4.43,0.41,14.57,0.2,21.2c-0.28,8.7-2.78,8.23-7.77,9.9c-5,1.67-3.05,27.75,1.11,35.8c4.16,8.05,28.86,9.71,28.86,9.71
					l0.99,0.09c-0.2-1.94-0.24-3.93-0.13-5.95c1.06-18.31,17.56-34.27,35.89-34.74c20.84-0.54,37.91,16.2,37.91,36.92
					c0,3.54-0.51,6.95-1.44,10.19l1.71,0.15l182.35,7.49h2.66c-1.6-4.81-2.25-10.04-1.69-15.51c1.84-17.83,16.57-31.95,34.47-33.01
					c21.42-1.28,39.2,15.72,39.2,36.86c0,4.07-0.67,7.99-1.89,11.66h1.08l24.81-3.41c4.37-0.43,7.7-4.1,7.7-8.48v-10.31l-3.14-13.46
					c-0.49-2.09-0.46-4.28,0.09-6.35L507.3,290.08z"/>
				<path class="st9" d="M132.68,290.15c3.72,0,6.75,1.22,9,3.22c-1.06-5.16-3.59-8.93-7.37-8.93c-5.72,0-10.75-1.43-14.68-3.09
					c-1.28,1.43-3.24,1.72-5.94,2.61c-1.07,0.36-1.82,1.83-2.3,4.01C117.48,289.22,124.67,290.16,132.68,290.15z"/>
				<path class="st10" d="M463.52,267.96c-102.3-21.88-123.22-6.57-216.49-22.76c-38.84-6.74-71.52-15.7-97.5-23.64l-19.08,19.6
					c19.5,2.45,46.29,4.67,92.53,11.81c45.25,6.99,35.06,5.94,135.81,13.69c66.86,5.14,71.81,1.9,112.13,8.14
					c13.08,2.02,14.45,3.39,25.44,5.72c-3.28-2.09-6.95-4.03-10.89-5.85C485.47,274.67,475.04,270.42,463.52,267.96z"/>
				
					<ellipse transform="matrix(0.233 -0.9725 0.9725 0.233 -175.7323 426.096)" class="st11" cx="182.25" cy="324.45" rx="32.5" ry="32.5"/>
				<circle class="st7" cx="182.25" cy="324.45" r="24.05"/>
				<path class="st8" d="M203.13,336.39c0.21-0.36,0.41-0.74,0.6-1.11c0,0,0,0,0,0l0,0c1.64-3.25,2.57-6.93,2.57-10.82
					c0-4.34-1.16-8.42-3.17-11.93c0-0.01-0.01-0.01-0.01-0.02c-0.21-0.36-0.43-0.72-0.66-1.08c0,0,0,0,0,0l0,0
					c-4.06-6.28-10.95-10.55-18.88-10.98l0,0c0,0,0,0,0,0c-0.44-0.02-0.88-0.04-1.33-0.04c-0.45,0-0.89,0.01-1.33,0.04c0,0,0,0,0,0
					l0,0c-8.37,0.46-15.59,5.19-19.53,12.05c0,0.01-0.01,0.01-0.01,0.02c-2.02,3.52-3.17,7.59-3.17,11.93
					c0,4.35,1.16,8.42,3.17,11.93c0,0.01,0.01,0.01,0.01,0.02c0.21,0.37,0.43,0.72,0.66,1.08l0,0l0,0
					c4.06,6.28,10.95,10.55,18.88,10.98l0,0c0,0,0,0,0,0c0.44,0.02,0.88,0.04,1.33,0.04c0.45,0,0.89-0.01,1.33-0.04c0,0,0,0,0,0l0,0
					c7.92-0.43,14.82-4.7,18.88-10.98l0,0c0,0,0,0,0,0c0.23-0.35,0.45-0.71,0.65-1.07C203.12,336.4,203.12,336.39,203.13,336.39z
					 M203.53,324.45c0,2.2-0.34,4.32-0.97,6.31c-0.4,1.27-1.98,1.71-2.97,0.82l-6.46-5.76c-0.82-0.73-0.82-2.01,0-2.73l6.46-5.76
					c0.99-0.89,2.58-0.45,2.97,0.82C203.18,320.14,203.53,322.25,203.53,324.45z M197.37,313.25l-8.46,3.04
					c-1.05,0.38-2.2-0.27-2.42-1.36l-1.83-9.08c-0.26-1.31,0.91-2.44,2.22-2.15c4.42,0.98,8.32,3.33,11.23,6.59
					C198.98,311.26,198.6,312.81,197.37,313.25z M179.84,305.85l-1.83,9.08c-0.22,1.1-1.36,1.74-2.42,1.36l-8.46-3.04
					c-1.23-0.44-1.61-1.99-0.74-2.96c2.91-3.26,6.81-5.61,11.23-6.59C178.92,303.41,180.1,304.54,179.84,305.85z M160.98,324.45
					c0-2.2,0.34-4.32,0.97-6.31c0.4-1.27,1.98-1.71,2.97-0.82l6.46,5.76c0.82,0.73,0.82,2.01,0,2.73l-6.46,5.76
					c-0.99,0.89-2.58,0.45-2.97-0.82C161.33,328.77,160.98,326.65,160.98,324.45z M167.13,335.65l8.46-3.04
					c1.05-0.38,2.2,0.27,2.42,1.36l1.83,9.08c0.26,1.31-0.91,2.44-2.22,2.15c-4.42-0.98-8.32-3.33-11.23-6.59
					C165.52,337.64,165.9,336.1,167.13,335.65z M184.67,343.05l1.83-9.08c0.22-1.1,1.36-1.74,2.42-1.36l8.46,3.04
					c1.23,0.44,1.61,1.99,0.74,2.96c-2.91,3.26-6.81,5.61-11.23,6.59C185.58,345.49,184.41,344.36,184.67,343.05z"/>
				<g>
					<path class="st11" d="M285.92,253.89l-6.6-40.9c-0.05-0.31-0.31-0.53-0.62-0.54c-12.61-0.42-26.08,0.18-41.49,1.58
						c-10.14,0.92-18.93,1.94-26.43,2.95c-0.21,0.03-0.39,0.16-0.48,0.34l-11.21,21.58c-0.16,0.31-0.05,0.7,0.26,0.87
						c5.79,3.15,11.94,5.77,17.6,6.73c6.53,1.1,34.82,4.39,68.26,8.13C285.63,254.68,285.99,254.31,285.92,253.89z"/>
					<path class="st11" d="M203.16,218.07c-10.07,1.53-17.22,2.96-21.68,3.97c-2.4,0.54-3.09,3.63-1.14,5.14
						c3.22,2.49,7.89,5.91,13.19,9.2c0.31,0.2,0.73,0.09,0.91-0.24l9.39-17.12C204.09,218.55,203.69,217.99,203.16,218.07z"/>
					<path class="st11" d="M372.38,239.28c-0.03-0.21-0.15-0.39-0.33-0.49c-9.14-4.96-18.81-9.61-28.26-13.1
						c-20.54-7.58-38.39-11.56-57.84-12.87c-0.43-0.03-0.77,0.37-0.68,0.79l9.14,41.62c0.06,0.27,0.28,0.47,0.56,0.5
						c27.11,3.02,56.43,6.21,79.79,8.74c0.41,0.04,0.75-0.31,0.7-0.72L372.38,239.28z"/>
					<path class="st11" d="M413.6,265.08c-6.96-5.01-19.68-13.8-34.5-22.33c-0.47-0.27-1.06,0.13-0.96,0.67l3.78,21.36
						c0.05,0.28,0.29,0.5,0.57,0.53c12.86,1.39,23.35,2.52,29.79,3.21C414.22,268.72,415.19,266.22,413.6,265.08z"/>
				</g>
				<path class="st12" d="M143.47,257.46c0-4.52-2.25-8.18-5.02-8.18l-15.7-0.2c-1.01,0.91-1.5,2.47-1.47,3.79
					c0.05,2.77,0.14,7.78,0.17,12.76h17.01C141.22,265.63,143.47,261.97,143.47,257.46L143.47,257.46z"/>
				<path class="st9" d="M498.9,294.13c-1.34,3.24-10.84,2.38-21.21-1.92c-10.37-4.3-17.68-10.41-16.34-13.65
					c1.34-3.24,10.84-2.38,21.21,1.92C492.93,284.77,500.24,290.89,498.9,294.13z"/>
				<path class="st12" d="M498.98,291.7c-0.92,2.5-10.11,1.42-20.53-2.42c-10.41-3.84-18.11-8.98-17.19-11.48
					c0.92-2.5,10.11-1.42,20.53,2.42C492.21,284.07,499.91,289.2,498.98,291.7z"/>
				<path class="st11" d="M151.72,219.31l-24.79,25.46c5.39-0.35,16.94-1.29,19.05-2.98c1.78-1.42,8.19-7.36,12.57-11.44
					c2.17-2.02,1.84-5.54-0.66-7.13L151.72,219.31z"/>
				<path class="st13" d="M194.44,236.14l-7.46,19.13c-0.48,1.4-0.35,2.93,0.38,4.21c6.25,11.01,36.62,63.19,51.51,64.97
					c16.65,1.99,152.1,8.02,152.1,8.02s13.97-38.86,5.29-65.69"/>
				<path class="st13" d="M285.21,254.64c0,0,5.31,23.27,0.72,72.79"/>
				<path class="st9" d="M224.24,261.37c-0.11,1.01-5.79,1.24-12.7,0.5c-6.91-0.74-12.42-2.15-12.31-3.16
					c0.11-1.01,5.79-1.24,12.7-0.5C218.84,258.95,224.35,260.36,224.24,261.37z"/>
				<path class="st9" d="M322.98,272.95c-0.11,1.01-5.79,1.24-12.7,0.5c-6.91-0.74-12.42-2.15-12.31-3.16
					c0.11-1.01,5.79-1.24,12.7-0.5C317.58,270.52,323.09,271.94,322.98,272.95z"/>
				<path class="st11" d="M507.3,290.08v31.36C507.3,321.44,488.87,327.06,507.3,290.08z"/>
				<path class="st14" d="M203.53,324.45c0,2.2-0.34,4.32-0.97,6.31c-0.4,1.27-1.98,1.71-2.97,0.82l-6.46-5.76
					c-0.82-0.73-0.82-2.01,0-2.73l3.42-3.05c-6.49-1.58-12.95-2.11-18.24-6.55l-0.29,1.45c-0.22,1.1-1.36,1.74-2.42,1.36l-8.46-3.04
					c-1.23-0.44-1.61-1.99-0.74-2.96c1.8-2.02,3.99-3.69,6.44-4.9c-0.26-0.85-0.51-1.73-0.83-2.69c-4.46,2.11-8.17,5.54-10.61,9.8
					c0,0.01-0.01,0.01-0.01,0.02c-2.02,3.52-3.17,7.59-3.17,11.93c0,0.97,0.07,1.91,0.18,2.85c0.92-0.02,1.85-0.05,2.79-0.08
					c-0.12-0.91-0.2-1.83-0.2-2.76c0-2.2,0.34-4.32,0.97-6.31c0.4-1.27,1.98-1.71,2.97-0.82l6.46,5.76c0.82,0.73,0.82,2.01,0,2.73
					l-1.28,1.14c10.14-0.09,20.16,1.06,27.27,8.69c0.64,0.23,1.04,0.76,1.16,1.35c0.77,0.96,1.45,1.95,2.06,2.98
					c0.67-0.79,1.29-1.62,1.86-2.49c0,0,0,0,0,0c0.23-0.35,0.45-0.71,0.65-1.07c0-0.01,0.01-0.01,0.01-0.02
					c0.21-0.36,0.41-0.74,0.6-1.11c0,0,0,0,0,0c1.64-3.25,2.57-6.93,2.57-10.82c0-0.24-0.02-0.48-0.02-0.72
					c-0.96-0.52-1.92-0.98-2.87-1.41C203.48,323.03,203.53,323.73,203.53,324.45z"/>
				<g>
					<g>
						<path class="st11" d="M188.39,325.59c-0.5,0.5-1.3,0.5-1.8,0c-0.5-0.5-0.5-1.3,0-1.8s1.3-0.5,1.8,0
							S188.89,325.1,188.39,325.59z"/>
						<circle class="st11" cx="182.01" cy="319.21" r="1.27"/>
					</g>
					<g>
						<path class="st11" d="M183.39,330.59c-0.5,0.5-1.3,0.5-1.8,0s-0.5-1.3,0-1.8s1.3-0.5,1.8,0
							C183.89,329.29,183.89,330.09,183.39,330.59z"/>
						<circle class="st11" cx="177.01" cy="324.21" r="1.27"/>
					</g>
				</g>
				<circle class="st11" cx="438.66" cy="332.48" r="33.57"/>
				
					<ellipse transform="matrix(0.9938 -0.111 0.111 0.9938 -34.1893 50.7373)" class="st7" cx="438.66" cy="332.48" rx="24.84" ry="24.84"/>
				<path class="st8" d="M460.22,344.8c0.22-0.38,0.42-0.76,0.62-1.15c0,0,0,0,0,0l0,0c1.7-3.36,2.66-7.16,2.66-11.18
					c0-4.49-1.2-8.69-3.28-12.33c0-0.01-0.01-0.01-0.01-0.02c-0.22-0.38-0.44-0.75-0.68-1.11c0,0,0,0,0,0l0,0
					c-4.19-6.48-11.32-10.89-19.5-11.34l0,0c0,0,0,0,0,0c-0.45-0.02-0.91-0.04-1.37-0.04c-0.46,0-0.92,0.01-1.37,0.04c0,0,0,0,0,0
					l0,0c-8.64,0.47-16.11,5.36-20.18,12.45c0,0.01-0.01,0.01-0.01,0.02c-2.08,3.63-3.28,7.84-3.28,12.33s1.2,8.7,3.28,12.33
					c0,0.01,0.01,0.01,0.01,0.02c0.22,0.38,0.44,0.75,0.68,1.11l0,0l0,0c4.19,6.48,11.32,10.89,19.5,11.34l0,0c0,0,0,0,0,0
					c0.45,0.02,0.91,0.04,1.37,0.04c0.46,0,0.92-0.01,1.37-0.04c0,0,0,0,0,0l0,0c8.18-0.45,15.31-4.85,19.5-11.34l0,0c0,0,0,0,0,0
					c0.23-0.36,0.46-0.73,0.68-1.11C460.21,344.82,460.21,344.81,460.22,344.8z M460.63,332.48c0,2.27-0.35,4.46-1,6.52
					c-0.41,1.31-2.05,1.76-3.07,0.85l-6.68-5.95c-0.84-0.75-0.84-2.07,0-2.83l6.68-5.95c1.03-0.92,2.66-0.47,3.07,0.85
					C460.28,328.02,460.63,330.2,460.63,332.48z M454.28,320.9l-8.74,3.15c-1.09,0.39-2.27-0.27-2.5-1.41l-1.89-9.38
					c-0.27-1.35,0.94-2.52,2.29-2.22c4.56,1.01,8.59,3.44,11.6,6.81C455.94,318.85,455.55,320.45,454.28,320.9z M436.16,313.26
					l-1.89,9.38c-0.23,1.13-1.41,1.8-2.5,1.41l-8.74-3.15c-1.27-0.46-1.66-2.05-0.76-3.06c3.01-3.36,7.03-5.8,11.6-6.81
					C435.22,310.74,436.43,311.91,436.16,313.26z M416.68,332.48c0-2.27,0.35-4.46,1-6.52c0.41-1.31,2.05-1.76,3.07-0.85l6.68,5.95
					c0.84,0.75,0.84,2.07,0,2.83l-6.68,5.95c-1.03,0.92-2.66,0.47-3.07-0.85C417.04,336.93,416.68,334.75,416.68,332.48z
					 M423.04,344.05l8.74-3.15c1.09-0.39,2.27,0.27,2.5,1.41l1.89,9.38c0.27,1.35-0.94,2.52-2.29,2.22
					c-4.56-1.01-8.59-3.44-11.6-6.81C421.37,346.1,421.77,344.5,423.04,344.05z M441.15,351.69l1.89-9.38
					c0.23-1.13,1.41-1.8,2.5-1.41l8.74,3.15c1.27,0.46,1.66,2.05,0.76,3.06c-3.01,3.36-7.03,5.79-11.6,6.81
					C442.1,354.21,440.88,353.04,441.15,351.69z"/>
				<path class="st14" d="M460.63,332.48c0,2.27-0.35,4.46-1,6.52c-0.41,1.31-2.05,1.76-3.07,0.85l-6.67-5.95
					c-0.84-0.75-0.84-2.07,0-2.83l3.53-3.15c-6.7-1.63-13.38-2.17-18.85-6.77l-0.3,1.5c-0.23,1.13-1.41,1.8-2.5,1.41l-8.74-3.15
					c-1.27-0.46-1.66-2.05-0.76-3.06c1.86-2.09,4.12-3.81,6.65-5.06c-0.27-0.88-0.52-1.78-0.86-2.78
					c-4.61,2.18-8.44,5.72-10.96,10.12c0,0.01-0.01,0.01-0.01,0.02c-2.08,3.63-3.28,7.84-3.28,12.33c0,1,0.07,1.98,0.18,2.94
					c0.95-0.02,1.92-0.05,2.88-0.09c-0.12-0.94-0.2-1.89-0.2-2.86c0-2.27,0.35-4.46,1-6.52c0.41-1.31,2.05-1.76,3.07-0.85l6.68,5.95
					c0.84,0.75,0.84,2.07,0,2.83l-1.32,1.18c10.48-0.09,20.83,1.09,28.17,8.98c0.66,0.24,1.07,0.78,1.2,1.39
					c0.8,0.99,1.5,2.02,2.13,3.08c0.69-0.82,1.34-1.67,1.92-2.57c0,0,0,0,0,0c0.23-0.36,0.46-0.73,0.68-1.11
					c0-0.01,0.01-0.02,0.01-0.02c0.22-0.38,0.42-0.76,0.62-1.15c0,0,0,0,0,0c1.7-3.36,2.66-7.16,2.66-11.18
					c0-0.25-0.02-0.49-0.02-0.74c-0.99-0.53-1.98-1.02-2.97-1.45C460.58,331.01,460.63,331.73,460.63,332.48z"/>
				<g>
					<g>
						<path class="st11" d="M445,333.65c-0.51,0.51-1.34,0.51-1.86,0c-0.51-0.51-0.51-1.34,0-1.86c0.51-0.51,1.34-0.51,1.86,0
							C445.51,332.31,445.51,333.14,445,333.65z"/>
						<path class="st11" d="M439.33,327.99c-0.51,0.51-1.34,0.51-1.86,0c-0.51-0.51-0.51-1.34,0-1.86c0.51-0.51,1.34-0.51,1.86,0
							C439.85,326.65,439.85,327.48,439.33,327.99z"/>
					</g>
					<g>
						<path class="st11" d="M439.83,338.82c-0.51,0.51-1.34,0.51-1.86,0c-0.51-0.51-0.51-1.34,0-1.86c0.51-0.51,1.34-0.51,1.86,0
							C440.35,337.47,440.35,338.31,439.83,338.82z"/>
						<circle class="st11" cx="433.24" cy="332.23" r="1.31"/>
					</g>
				</g>
				<path class="st15" d="M481.79,280.23c-5.48-2.02-10.61-3.27-14.38-3.64c2.02,3.23,9.92,7.94,19.95,11.63
					c4.15,1.53,8.13,2.69,11.63,3.44C499.81,289.14,492.15,284.04,481.79,280.23z"/>
				<path class="st15" d="M138.45,249.28l-15.7-0.2c-0.97,0.94-1.5,2.47-1.47,3.79c0.03,1.41,0.06,3.41,0.1,5.69
					c0.12-0.83,0.36-1.61,0.71-2.27h16.37c2,0,3.72,1.91,4.53,4.67c0.31-1.06,0.49-2.25,0.49-3.51l0,0
					C143.47,252.94,141.22,249.28,138.45,249.28z"/>
			</g>
		</g>
		<path class="st9" d="M386.21,253.61h-8.95c-1.49,0-2.7,1.63-2.7,3.64v0.81c0,0.54-0.18,1.06-0.49,1.4l-3.43,3.86
			c-0.55,0.62-0.67,1.78-0.22,2.52c0.2,0.33,0.48,0.54,0.77,0.61c0.37,0.09,0.76-0.03,1.07-0.38l0.98-1.1
			c0.58-0.65,1.46-0.6,1.94,0.19c0.49,0.81,1.24,1.32,2.08,1.32h4.8c3.78,0,6.85-4.14,6.85-9.24l0,0
			C388.91,255.23,387.7,253.61,386.21,253.61z"/>
	</g>
	<g>
		<path class="st16" d="M302.54,176.05c0,0,10.54,4.28,9.42,17.08c-0.56,6.43-4.47,18.4-4.47,18.4l-16.16-3.37l-8.81-8.13
			l8.42-17.19L302.54,176.05z"/>
		<path class="st16" d="M259.8,181.86c0.68-1.36,3.65-4.46,5.07-5l10.59-3.68c2.24,5.6,2.12,13.19-0.89,20.64
			c-3.65,9.06-10.52,15.34-17.26,16.66c-1.01-1.91-1.43-4.73-0.03-8.85c0,0,4.1,2.06-1.45-1.28
			C255.82,200.35,256.27,188.85,259.8,181.86z"/>
		<polygon class="st17" points="263,191.82 262.25,187.4 260.72,194.5 		"/>
		<g>
			<path class="st16" d="M255.82,200.35l-0.63,15.08c0,0,2.7,3.63,7.29,3.38l7.49-21.81L255.82,200.35z"/>
			<path class="st16" d="M249.59,220.07c0,0,10.19,7.75,11.76,6.93c1.57-0.82,1.23-5.12,1.23-5.12s2.07-7.23-2.88-6.72
				c-4.95,0.51-10.11,0.26-10.11,0.26V220.07z"/>
			<g>
				<path class="st18" d="M299.73,147.11c0,0,3.03,14.22-6.16,10.7l-2.46,0.95c-0.24-0.2,11.39,8.91,9.5-11.34L299.73,147.11z"/>
				<path class="st1" d="M261.51,191.82c3.22-3.61,9.65-14.46,11.24-17.71l5.92-2.06l17.78,0.35l6.11,3.64
					c0,0-15.44,20.94-11.43,29.13l12.82,8.15l-0.57,3.64l-0.48,14.07c0,0-21.13,14.21-43.61,0.25l2.51-17.12
					C261.77,214.18,246.9,208.2,261.51,191.82z"/>
				<path class="st19" d="M300.66,212.04c-16.17,8.26-38.93,2.12-38.93,2.12l-0.22,3.93c0,0,15.57,1.73,25.4-0.25
					C296.73,215.88,300.66,212.04,300.66,212.04z"/>
				<path class="st16" d="M296.44,172.41c0,0-2.57-0.46-3.31-3.8c-0.64-2.89,0.35-8.16,2.26-14.5l-14.19,2.35
					c0,0-0.14,14.77-2.53,15.59v0c-2.83,5.91,1.1,7.74,10.26,4.68c1.88-0.63,3.64-1.56,5.26-2.71L296.44,172.41z"/>
				<path class="st17" d="M281.61,160.76c0,0,0.05,3.27-1.98,10.08c9.98-0.41,13.43-9.2,13.43-9.2l0.87-1.2c0,0,0.07-2.15,0.28-3.01
					L281.61,160.76z"/>
				<path class="st16" d="M270.91,144.79c0,0-7.64,20.1,5.41,25.55c6.43,2.69,19.64-14.6,20.95-17.25c1.3-2.66,3.88-11.1-1.24-13.88
					C290.9,136.42,277.07,131.73,270.91,144.79z"/>
				<g>
					<path class="st18" d="M283.29,147.96c0,0-2.01-2.4-4.72-1.87c-1.54,0.3-0.6,1.38,0.36,1.93
						C279.89,148.57,283.8,149.42,283.29,147.96z"/>
				</g>
				<path class="st20" d="M310.05,141.12"/>
				<g>
					<path class="st18" d="M272.77,145.5c0,0-2.69-0.45-3.33,1.29c-0.36,0.99,0.87,1.17,1.68,1.02
						C271.93,147.66,274.13,146.15,272.77,145.5z"/>
				</g>
				<path class="st18" d="M272.32,142.3c0,0,1.76-2.96,4.97-4.25c0.65-0.26,4.52,10.6,14.6,11.59l-0.77,4.95l6.18,1.75
					c0,0-0.43,0.77,0.92-0.62c1.35-1.4,9.38-21.1-11.91-20.75C272.84,135.18,272.32,142.3,272.32,142.3z"/>
				<path class="st16" d="M296.88,158.9c-1.58,2.11-4.15,2.86-5.75,1.67c-1.59-1.19-1.6-3.87-0.02-5.98
					c1.58-2.11,4.15-2.86,5.75-1.67C298.45,154.11,298.46,156.79,296.88,158.9z"/>
				<path class="st17" d="M296.19,154.63c-1.8,0.55-3.32,1.75-3.71,3.56c0,0-0.44-0.24-0.44-0.24c0.74-0.57,1.51-1.13,2.33-1.62
					c-0.77,0.92-1.68,1.73-2.56,2.54l0.14-0.78C292.19,156.11,294.14,154.58,296.19,154.63L296.19,154.63z"/>
				<path class="st17" d="M273.73,151.95l-2.79,4.97c-0.38,1.52,1.66,2.35,1.66,2.35s2.54-0.91,2.58-1.32
					c0.22-2.58,0.7-7.09-0.44-6.88C274.12,151.19,273.73,151.95,273.73,151.95z"/>
				<path class="st21" d="M272.67,158.51c-0.31,0.43,0.26-0.75,1.96-0.22"/>
				<g>
					<path class="st17" d="M281.39,159.86c-1.48,2.24-4.7,3.18-7.13,1.97C276.83,162.3,279.38,161.57,281.39,159.86L281.39,159.86z"
						/>
				</g>
				<g>
					<g>
						<g>
							<path class="st22" d="M276.48,153.92c0,0,1.09-1.58,2.77-2.33c0,0,1.47-0.67,3.58,2.18
								C282.83,153.78,279.96,156.28,276.48,153.92z"/>
							<g>
								<defs>
									<path id="SVGID_1_" d="M276.48,153.92c0,0,1.09-1.58,2.77-2.33c0,0,1.47-0.67,3.58,2.18
										C282.83,153.78,279.96,156.28,276.48,153.92z"/>
								</defs>
								<clipPath id="SVGID_2_">
									<use xlink:href="#SVGID_1_"  style="overflow:visible;"/>
								</clipPath>
								<path class="st23" d="M280.56,153.68c-0.09,1.08-0.85,1.9-1.7,1.83c-0.85-0.07-1.48-1.01-1.39-2.09
									c0.09-1.08,0.85-1.9,1.7-1.83C280.02,151.67,280.64,152.6,280.56,153.68z"/>
								<path class="st24" d="M279.02,153.53c0.49,0.04,0.95,0.16,1.34,0.33c0.01-0.06,0.02-0.12,0.03-0.18
									c0.08-0.96-0.48-1.79-1.24-1.86c-0.76-0.06-1.44,0.67-1.51,1.63c-0.01,0.06,0,0.12,0,0.19
									C278.06,153.53,278.52,153.48,279.02,153.53z"/>
							</g>
							<g>
								<path class="st25" d="M276.48,153.92c0.92-1.81,3.3-3.7,5.11-1.77c0.51,0.47,0.92,1.03,1.24,1.63
									c-0.49-0.47-0.96-0.94-1.49-1.32C279.57,150.92,277.81,152.65,276.48,153.92L276.48,153.92z"/>
							</g>
						</g>
						<g>
							<path class="st22" d="M272.33,153.58c0,0-0.57-1.62-1.67-2.54c0,0-1.38-0.7-2.16,1.74
								C268.49,152.78,269.53,155.29,272.33,153.58z"/>
							<g>
								<defs>
									<path id="SVGID_3_" d="M272.33,153.58c0,0-0.57-1.62-1.67-2.54c0,0-1.59-0.72-2.16,1.74
										C268.49,152.78,269.53,155.29,272.33,153.58z"/>
								</defs>
								<clipPath id="SVGID_4_">
									<use xlink:href="#SVGID_3_"  style="overflow:visible;"/>
								</clipPath>
								<path class="st26" d="M268.81,152.72c-0.08,1.02,0.36,1.88,0.98,1.93c0.62,0.05,1.19-0.73,1.27-1.75
									c0.08-1.02-0.36-1.88-0.98-1.93C269.45,150.92,268.89,151.7,268.81,152.72z"/>
								<path class="st27" d="M269.93,152.79c-0.36-0.03-0.7,0.02-1,0.12c0-0.06,0-0.12,0-0.17c0.07-0.9,0.58-1.6,1.13-1.55
									c0.55,0.05,0.94,0.81,0.87,1.72c0,0.06-0.02,0.12-0.02,0.17C270.61,152.92,270.29,152.82,269.93,152.79z"/>
							</g>
							<g>
								<path class="st25" d="M272.33,153.58c-0.6-0.91-1.74-3.36-2.99-2.08c-0.32,0.37-0.56,0.84-0.85,1.28
									c0.11-0.52,0.27-1.02,0.57-1.49C270.49,149.52,272.11,152.23,272.33,153.58L272.33,153.58z"/>
							</g>
						</g>
					</g>
				</g>
			</g>
			<path class="st18" d="M303.36,139.86"/>
			<g>
				
					<ellipse transform="matrix(0.0199 -0.9998 0.9998 0.0199 -78.1751 673.2978)" class="st6" cx="304.34" cy="376.52" rx="10.05" ry="58.11"/>
				<g>
					<path class="st16" d="M284.52,364.74c0,0-5.54-13.74-7.02-9.51c-0.7,1.99-9.71,14.17-17.29,16.44c0,0-1.88,3.65,10.2,1.09
						C282.49,370.18,286.11,368.77,284.52,364.74z"/>
					<path class="st16" d="M333.38,355.09c0,0,18.76,28.83,16.01,29.57c-2.74,0.74-21.18-11.23-21.53-13s0.71-12.21,0.71-12.21
						L333.38,355.09z"/>
					<path class="st28" d="M349.39,384.66c1.62-0.74-5.02-11.99-10.29-20.51c-1.48-1.59-2.63-1.83-3.27-1.67
						c-1.82,0.46-2.95,1.16-3.12,3.99c-0.21,3.55-4.79,1.93-4.65-1.88c0,0,0,0,0,0c-0.02,0.83-0.68,4.81-0.21,7.07
						c0.14,0.66,3.86,4.15,3.86,4.15C338.8,385.07,344.71,386.81,349.39,384.66z"/>
					<path class="st28" d="M257.57,375.64c11.06,2.32,21.78-4.79,21.78-4.79c5.76-0.51,6.76-2.09,5.17-6.12c0,0-0.05-0.11-0.13-0.31
						h0c-0.03,0.02-0.06,0.05-0.09,0.07c-2.16,1.67-5.32,0.27-5.56-2.45c-0.18-1.95-0.51-3.87-1.13-4.71
						c-0.32-0.44-0.72-0.56-1.16-0.5c0,0,0,0,0,0c-0.19,0.24-0.39,0.49-0.62,0.77c-0.02,0.03-0.04,0.05-0.06,0.08
						c-0.21,0.25-0.42,0.5-0.66,0.77c-3.52,4.03-10.25,10.41-15.71,12.56c-1.05,0.42-2.02,1.05-2.7,1.96
						C255.62,374.37,255.98,375.31,257.57,375.64z"/>
					<path class="st29" d="M279.35,370.85c0,0-10.72,7.11-21.78,4.79c-1.59-0.33-1.95-1.27-0.89-2.68c0.68-0.9,1.65-1.54,2.7-1.96
						c0.86-0.34,1.75-0.79,2.65-1.31c2.22,1.51,3.25,4.08,3.25,4.08c6.72-0.75,15.38-5.02,15.38-5.02c1.07-1.75,2.63-3.08,3.87-3.95
						C286.1,368.78,285.07,370.35,279.35,370.85z"/>
					<path class="st29" d="M331.74,373.43l8.54,8.44c0.51-4.31,3.71-4.84,6.65-4.37c2.06,3.88,3.26,6.79,2.47,7.16
						c-4.68,2.14-10.6,0.41-17.67-8.85c0,0-3.73-3.49-3.86-4.15c-0.27-1.29-0.17-3.14-0.03-4.65
						C329.52,368.8,331.74,373.43,331.74,373.43z"/>
					<g>
						<g>
							<path class="st29" d="M340.28,366.58c-1.46-1.03-3.42-0.12-4.44,1.1c-0.14,0.19-0.29,0.37-0.41,0.57
								C336.79,367.13,338.43,365.99,340.28,366.58L340.28,366.58z"/>
							<path class="st29" d="M341.8,368.47c-1.95-1.17-4.49-0.05-5.77,1.62C337.71,368.9,339.68,367.92,341.8,368.47L341.8,368.47z"
								/>
							<path class="st29" d="M342.91,370.3c-1.95-1.17-4.49-0.05-5.77,1.62C338.82,370.73,340.79,369.75,342.91,370.3L342.91,370.3z
								"/>
						</g>
						<path class="st29" d="M334.42,366.68c0.99,0.25,2-0.26,2.71-0.93l-0.24-0.02c-1.31-0.07-3.76-0.62-3.01-2.4
							c0.71-1.25,3.15,1.91,3.68,2.52c0.34-1.26,0.54-2.66,1.22-3.79c0.01-0.01,0.02,0-0.04-0.01c-0.04-0.01-0.04-0.02-0.02,0
							c0.11,0.18,0.08,0.55,0.03,0.85c-0.17,0.99-0.54,1.94-0.89,2.87c0.81,0.39,1.68-0.15,2.35-0.57c-0.65,0.32-1.49,0.77-2.2,0.46
							l0.03,0.1c0.29-0.6,0.53-1.21,0.74-1.84c0.18-0.69,0.5-1.3,0.23-2.06c-0.03-0.05-0.08-0.13-0.21-0.16
							c-0.13-0.03-0.21,0.04-0.26,0.08c-0.75,1.03-0.92,2.37-1.29,3.57c0,0,0.36-0.08,0.36-0.08c-0.7-0.84-3.08-3.81-4.07-2.11
							c-0.9,2.07,1.8,2.78,3.34,2.76c0,0-0.07-0.17-0.07-0.17C336.21,366.37,335.33,366.81,334.42,366.68L334.42,366.68z"/>
					</g>
					<g>
						<g>
							<path class="st29" d="M270.91,361.72c1.91-0.37,3.41,0.95,4.63,2.22c-0.1-0.21-0.23-0.4-0.35-0.61
								C274.32,361.99,272.47,360.87,270.91,361.72L270.91,361.72z"/>
							<path class="st29" d="M269.19,363.43c2.17-0.3,4.01,0.9,5.55,2.27C273.65,363.9,271.26,362.5,269.19,363.43L269.19,363.43z"
								/>
							<path class="st29" d="M267.87,365.12c2.17-0.3,4.01,0.9,5.55,2.27C272.34,365.58,269.95,364.18,267.87,365.12L267.87,365.12z
								"/>
						</g>
						<path class="st29" d="M276.73,362.5c-0.92,0.03-1.74-0.52-2.28-1.19l-0.09,0.16c1.2,0.07,2.77,0.12,3.54-1.02
							c0.31-0.61,0.29-1.58-0.41-1.9c-0.69-0.2-1.33,0.25-1.87,0.58c-0.7,0.47-1.32,1.01-1.91,1.6l0.35,0.12
							c-0.12-0.53-0.44-4.54-1.34-3.67c-0.36,0.72-0.11,1.37-0.01,2.07c0.14,0.65,0.31,1.29,0.53,1.92l0.04-0.1
							c-0.14,0.07-0.35,0.07-0.54,0.04c-0.59-0.1-1.11-0.42-1.59-0.75c0.61,0.48,1.38,1.09,2.21,0.86l0.06-0.02
							c-0.17-0.66-0.34-1.32-0.45-1.99c-0.11-0.54-0.17-1.45-0.01-1.8c0.36,0.95,0.55,2.36,0.69,3.5l0.05,0.4l0.3-0.29
							c0.6-0.52,3.08-3.04,3.65-1.79c0.54,1.85-1.95,2.11-3.26,2.04c0,0-0.24-0.01-0.24-0.01
							C274.77,362.02,275.71,362.63,276.73,362.5L276.73,362.5z"/>
					</g>
					<path class="st16" d="M283.17,325.05c0.5,13.47,1.31,40.45,1.31,40.45l-6.87-8.16c0,0-0.81-19.29-2.85-26.5
						c-0.38-1.34-0.94-3.27-1.65-5.61C276.31,325.69,279.87,325.5,283.17,325.05z"/>
					<path class="st16" d="M324.72,321.81c3.15,10.88,8.66,33.28,8.66,33.28s-4.01,8.04-4.11,6.9c-0.07-0.82-9.39-23.83-15.54-38.42
						L324.72,321.81z"/>
				</g>
				<path class="st7" d="M302.88,231.05c0,0,30.31,68.35,36,114.22c0,0-11.71,6.88-27.83,0.25l-27.36-71.35
					c0,0,8.12,42.22,8.01,66.36c0,0-11.27,4.83-23,0.68c0,0-21.31-71.87-9.19-110.74C259.52,230.46,279.35,237.34,302.88,231.05z"/>
				<g>
					<defs>
						<path id="SVGID_5_" d="M302.88,231.05c0,0,30.31,68.35,36,114.22c0,0-11.71,6.88-27.83,0.25l-27.36-71.35
							c0,0,8.12,42.22,8.01,66.36c0,0-11.27,4.83-23,0.68c0,0-21.31-71.87-9.19-110.74C259.52,230.46,279.35,237.34,302.88,231.05z"
							/>
					</defs>
					<clipPath id="SVGID_6_">
						<use xlink:href="#SVGID_5_"  style="overflow:visible;"/>
					</clipPath>
					<g class="st30">
						<path class="st31" d="M338.67,350.71c0,0-21.15-79.2-29.19-92.47s-13.04-39.45-13.04-39.45"/>
						<path class="st31" d="M332.66,353.02c0,0-21.15-79.2-29.19-92.47c-8.04-13.27-13.04-39.45-13.04-39.45"/>
						<path class="st31" d="M312.07,355.39c0,0-21.15-79.2-29.19-92.47c-8.04-13.27-13.04-39.45-13.04-39.45"/>
						<path class="st31" d="M291.1,357.73c0,0-9.61-81.41-15.68-95.69c-6.06-14.28-7.28-40.9-7.28-40.9"/>
						<path class="st31" d="M284.39,355.36c0,0-11.48-73.29-14.85-88.43c-6.51-29.27-5.47-53.68-5.47-53.68"/>
						<path class="st31" d="M275.35,356.18c0,0-8.4-73.71-11.12-88.98c-5.27-29.52-3.22-53.86-3.22-53.86"/>
						<path class="st31" d="M269.62,358.48c0,0-8.4-73.71-11.12-88.98c-5.27-29.52-3.22-53.86-3.22-53.86"/>
						<path class="st31" d="M326.55,355.39c0,0-21.15-79.2-29.19-92.47c-8.04-13.27-13.04-39.45-13.04-39.45"/>
						<path class="st31" d="M319.07,356.07c0,0-21.15-79.2-29.19-92.47c-8.04-13.27-13.04-39.45-13.04-39.45"/>
					</g>
				</g>
				<path class="st32" d="M285.35,274.27l-5.05-11.64l2.83-1.73c0,0-4.55-1.83-10.22-3.96l6.15,8.04l2.98,8.82l2.03,0.55
					L285.35,274.27z"/>
			</g>
			<polygon class="st16" points="292.59,205.83 289.02,218.45 298.81,237.34 307.5,211.54 			"/>
			<g>
				<path class="st17" d="M289.17,217.62l2.96-11.01l-1.37-1.57c2.3-0.47,5.19-3.42,5.19-3.42l-1.87,7.12l-2.92,8.05
					c2.21,3.34,3.88,7.29,4.78,9.64C294.02,222.61,289.17,217.62,289.17,217.62z"/>
				<path class="st17" d="M295.94,226.42c0.38,0.75,0.65,1.45,0.74,2.07C296.69,228.49,296.42,227.68,295.94,226.42z"/>
			</g>
			<path class="st16" d="M266,202.93c0,0-0.69-0.42,2.8-2.58c0.79-0.49,1.8-0.4,2.49,0.22c4.86,4.33,23.63,21.18,25.19,24.79
				c2.56,5.93,3.05,9.63,2.33,11.99c-0.18,0.58-0.8,0.96-1.48,0.91c-2.57-0.17-8.64-2.34-14.69-8.23
				C273.6,221.2,266,202.93,266,202.93z"/>
			<path class="st18" d="M294.83,142.13c0,0-2.78-12.49,6.07-11.68c8.85,0.82,11.03,14.98,2.72,15.26
				C295.32,145.99,294.83,142.13,294.83,142.13z"/>
		</g>
		<g>
			<path class="st16" d="M268.8,200.35c0,0-12.01,3.6-12.21,4.2c-0.2,0.59,9.14,5.03,11.28,5.26c3.13,0.34,6.49-5.16,6.49-5.16
				L268.8,200.35z"/>
			<path class="st16" d="M261.78,203.73c0,0-7.25,0.48-7.61,1.04c-0.35,0.56-5.55,3.99-5.32,4.25c1.06,1.21,2.62,0.41,3.55-0.31
				c3.02-2.34,11.29-2.44,11.29-2.44L261.78,203.73z"/>
			<path class="st16" d="M256.71,204.93c0,0-0.74,4.61,1.57,5.27c0,0,1.09,1.66,2.8,1.55c0,0,1.34,1.9,2.98,1.5
				c0,0,4.04,0.56,3.83-3.72L256.71,204.93z"/>
		</g>
		<g>
			<g>
				<path class="st33" d="M229.38,210.3l1.61-6.64c0,0,0.16-0.38,0.51-0.27c0.21,0.07,18.03,6.57,20.4,7.43
					c0.17,0.06,0.3,0.19,0.36,0.36l2.2,5.79c0.09,0.23,0.05,0.5-0.11,0.69l-0.41,0.52c-0.1,0.13-0.27,0.18-0.42,0.13l-23.88-7.55
					C229.44,210.7,229.33,210.5,229.38,210.3z"/>
				<g>
					<path class="st34" d="M253.67,217.03l-23.06-7.72c-0.22-0.07-0.35-0.3-0.31-0.53l1.06-5.25c0.02-0.09,0.11-0.14,0.19-0.11
						l20.41,7.43c0.13,0.05,0.23,0.15,0.28,0.27l2.02,5.31C254.39,216.79,254.04,217.16,253.67,217.03z"/>
					<polygon class="st35" points="253.01,216.83 232.34,209.89 233.45,204.11 250.57,210.4 					"/>
				</g>
				<path class="st33" d="M231.51,206.11c-0.05,0.16,0.15,0.36,0.44,0.45c0.29,0.09,0.56,0.04,0.61-0.12
					c0.05-0.16-0.15-0.36-0.44-0.45S231.56,205.95,231.51,206.11z"/>
			</g>
			<g>
				<path class="st16" d="M248.06,219.89c0,0-10.92-4.96-11.25-5.43c-0.33-0.48-0.38-7.33,0.94-7.78c1.32-0.44,1.42,1.22,1.54,3.81
					c0.18,4.17,0.65,2.8,0.65,2.8s5.89,0.71,7.1,0.31c0,0,2.76,2.11,4.72,3.53c0.96,0.7,1.03,1.82,0.17,2.6
					C250.93,220.65,250.14,220.96,248.06,219.89z"/>
				<path class="st16" d="M242.86,216.83c0,0-1.22-4.43-1.11-5.63c0.11-1.2,0.11-2.68,0.18-3.1c0.12-0.72-1-1.5-1.86,0.23
					c-0.86,1.73-0.7,3.01-0.61,3.63c0.09,0.61,0.97,3.36,0.97,3.36L242.86,216.83z"/>
				<path class="st16" d="M245.41,218.15c0,0-1.22-4.43-1.11-5.63c0.11-1.2,0.55-2.97,0.48-3.39c-0.07-0.42-1.3-1.21-2.16,0.52
					c-0.86,1.73-0.7,3.01-0.61,3.63c0.09,0.61,0.97,3.36,0.97,3.36L245.41,218.15z"/>
				<path class="st16" d="M250.64,218.43c0,0-3.31-3.45-3.55-4.63s-0.32-3.01-0.5-3.39c-0.18-0.38-1.58-0.75-1.91,1.18
					c-0.33,1.93,0.18,3.1,0.45,3.66c0.26,0.56,1.87,2.91,1.87,2.91L250.64,218.43z"/>
			</g>
		</g>
		<path class="st17" d="M255.28,213.3c0,0,3.67,2.49,3.99,5.03l-4.08-2.91L255.28,213.3z"/>
	</g>
	<path class="st2" d="M512.64,146.07l-19.68-2.13c0,0,11.83,0.63,9.25-4.38c-2.68-5.21-11.44,1.18-11.44,1.18s8.54-7.36-0.37-10.43
		c-8.17-2.82-13.79,3.44-13.07,8.25c-1.34-0.91-4.03-1.72-5.24-0.53c-3.5,3.43,1.73,5.4,1.73,5.4l-12.64,2.12L512.64,146.07z"/>
	<path class="st2" d="M221.45,178.85l-19.68-2.13c0,0,11.83,0.63,9.25-4.38c-2.68-5.21-11.44,1.18-11.44,1.18s8.54-7.36-0.37-10.43
		c-8.17-2.82-13.79,3.44-13.07,8.25c-1.34-0.91-4.03-1.72-5.24-0.53c-3.5,3.43,1.73,5.4,1.73,5.4L170,178.34L221.45,178.85z"/>
</g>
<g id="TEXTS" class="st0">
	<g class="st36">
		<text transform="matrix(0.9659 0 0 1 -60.5332 96.2568)" class="st37 st46 st47">LOGO</text>
	</g>
	<g class="st36">
		<text transform="matrix(0.9659 0 0 1 -65.711 183.5676)" class="st37 st38 st39">Car Sharing</text>
	</g>
	<g class="st36">
		<text transform="matrix(0.9659 0 0 1 -65.711 223.2045)" class="st37 st40 st41">Service</text>
	</g>
	<rect x="-63.21" y="252.43" class="st42" width="117.59" height="55.53"/>
	<text transform="matrix(0.9659 0 0 1 -63.21 258.822)" class="st36"><tspan x="0" y="0" class="st43 st44 st45">Lorem ipsum dolor sit amet, </tspan><tspan x="0" y="13" class="st43 st44 st45">consectetuer adipiscing elit.</tspan></text>
	<rect x="-63.21" y="290.15" class="st42" width="88.86" height="55.53"/>
	<text transform="matrix(0.9659 0 0 1 -63.21 296.5366)" class="st36"><tspan x="0" y="0" class="st43 st44 st45">Lorem ipsum dolor sit </tspan><tspan x="0" y="13" class="st43 st44 st45">amet, consectetuer.</tspan></text>
	<g class="st36">
		<text transform="matrix(0.9659 0 0 1 478.8778 94.3828)" class="st37 st46 st47">Register</text>
	</g>
	<g class="st36">
		
			<rect x="-81.33" y="90.21" transform="matrix(0.7071 0.7071 -0.7071 0.7071 44.1398 82.2028)" class="st48" width="8.34" height="8.34"/>
		
			<rect x="-75.43" y="90.21" transform="matrix(0.7071 0.7071 -0.7071 0.7071 45.8666 78.0337)" class="st48" width="8.34" height="8.34"/>
	</g>
	<g class="st36">
		<text transform="matrix(0.9659 0 0 1 69.0238 96.2568)" class="st37 st46 st47">Home</text>
	</g>
	<g class="st36">
		<text transform="matrix(0.9659 0 0 1 132.0348 96.2568)" class="st37 st46 st47">About Us</text>
	</g>
	<g class="st36">
		<text transform="matrix(0.9659 0 0 1 202.2335 96.2568)" class="st37 st46 st47">Rentals</text>
	</g>
	<g class="st36">
		<text transform="matrix(0.9659 0 0 1 266.5025 96.2568)" class="st37 st46 st47">Requirements</text>
	</g>
	<g class="st36">
		<text transform="matrix(0.9659 0 0 1 355.6286 96.2568)" class="st37 st46 st47">FAQ</text>
	</g>
	
		<text transform="matrix(0.9659 0 0 1 -51.2272 382.2326)" style="display:inline;fill:#FFFFFF; font-family:'Montserrat-Regular'; font-size:10.7776px;">Try It Now!</text>
</g>
</svg>
